<svg width="60" height="61" viewBox="0 0 60 61" fill="none" xmlns="http://www.w3.org/2000/svg">
<g clip-path="url(#clip0)">
<path fill-rule="evenodd" clip-rule="evenodd" d="M16.688 17.319C13.2492 20.7532 11.3301 25.4236 11.3529 30.3027C11.3757 35.1818 13.3385 39.87 16.8096 43.3359C20.2807 46.8018 24.9756 48.7616 29.8616 48.784C34.7476 48.8064 39.4245 46.8897 42.8633 43.4554C46.3021 40.0212 48.2212 35.3508 48.1984 30.4717C48.1756 25.5926 46.2127 20.9044 42.7417 17.4385C39.2706 13.9726 34.5757 12.0128 29.6896 11.9904C24.8036 11.968 20.1268 13.8847 16.688 17.319ZM14.8183 15.4521C10.8883 19.3769 8.69502 24.7145 8.72108 30.2906C8.74714 35.8668 10.9904 41.2247 14.9573 45.1858C18.9242 49.1468 24.2899 51.3865 29.8739 51.4121C35.4579 51.4377 40.8029 49.2472 44.7329 45.3223C48.663 41.3975 50.8562 36.0599 50.8302 30.4838C50.8041 24.9076 48.5609 19.5497 44.594 15.5886C40.627 11.6276 35.2614 9.38792 29.6774 9.36231C24.0934 9.3367 18.7484 11.5272 14.8183 15.4521Z" fill="#91C914"/>
<path fill-rule="evenodd" clip-rule="evenodd" d="M19.5359 29.4111L26.945 22.0118C27.1907 21.7665 27.5247 21.6296 27.8737 21.6312C28.2227 21.6328 28.5581 21.7728 28.806 22.0203C29.0539 22.2679 29.1941 22.6028 29.1958 22.9513C29.1974 23.2998 29.0603 23.6334 28.8147 23.8787L23.6412 29.0452L39.0743 29.1142C39.4238 29.1158 39.7595 29.2559 40.0078 29.5038C40.256 29.7517 40.3964 30.087 40.398 30.4359C40.3997 30.7849 40.2624 31.1189 40.0165 31.3645C39.7705 31.6101 39.436 31.7472 39.0866 31.7456L23.6535 31.6729L28.8755 36.8872C29.1234 37.1347 29.2636 37.4696 29.2652 37.8181C29.2669 38.1666 29.1298 38.5002 28.8842 38.7455C28.6385 38.9908 28.3045 39.1277 27.9555 39.1261C27.6065 39.1245 27.2711 38.9845 27.0232 38.737L19.5445 31.2694C19.2966 31.0219 19.1564 30.687 19.1548 30.3385C19.1531 29.99 19.2902 29.6564 19.5359 29.4111Z" fill="#91C914"/>
</g>
<defs>
<clipPath id="clip0">
<rect width="41.8846" height="42.2743" fill="white" transform="matrix(-0.707579 0.706635 -0.707631 -0.706582 59.5513 30.5238)"/>
</clipPath>
</defs>
</svg>
