<svg width="27" height="27" viewBox="0 0 27 27" fill="none" xmlns="http://www.w3.org/2000/svg">
<path d="M18.4307 9.30762H17.194C16.9251 9.30762 16.6693 9.43682 16.5111 9.6583L12.3662 15.4063L10.4889 12.8013C10.3307 12.5824 10.0775 12.4506 9.80596 12.4506H8.56933C8.39795 12.4506 8.29775 12.6457 8.39795 12.7854L11.6833 17.3417C11.7609 17.45 11.8632 17.5383 11.9818 17.5992C12.1003 17.6601 12.2316 17.6918 12.3649 17.6918C12.4982 17.6918 12.6295 17.6601 12.748 17.5992C12.8666 17.5383 12.9689 17.45 13.0465 17.3417L18.5994 9.64248C18.7022 9.50273 18.602 9.30762 18.4307 9.30762Z" fill="#91C914"/>
<path d="M13.5 1.6875C6.97676 1.6875 1.6875 6.97676 1.6875 13.5C1.6875 20.0232 6.97676 25.3125 13.5 25.3125C20.0232 25.3125 25.3125 20.0232 25.3125 13.5C25.3125 6.97676 20.0232 1.6875 13.5 1.6875ZM13.5 23.3086C8.08418 23.3086 3.69141 18.9158 3.69141 13.5C3.69141 8.08418 8.08418 3.69141 13.5 3.69141C18.9158 3.69141 23.3086 8.08418 23.3086 13.5C23.3086 18.9158 18.9158 23.3086 13.5 23.3086Z" fill="#91C914"/>
</svg>
