<svg width="37" height="34" viewBox="0 0 37 34" fill="none" xmlns="http://www.w3.org/2000/svg">
<path d="M6.35116 8.91358C3.53659 11.8149 3.81999 15.5408 3.82894 15.5833L3.82894 26.9166C3.82894 27.2923 3.98608 27.6526 4.2658 27.9183C4.54552 28.184 4.92491 28.3333 5.3205 28.3333H14.2698C15.915 28.3333 17.2529 27.0625 17.2529 25.4999L17.2529 15.5833C17.2529 15.2075 17.0958 14.8472 16.8161 14.5815C16.5364 14.3158 16.157 14.1666 15.7614 14.1666H11.1704C11.2019 13.4662 11.4222 12.7852 11.8103 12.1889C12.568 11.0542 13.9954 10.2793 16.0552 9.88825L17.2529 9.66158V5.66659H15.7614C11.6104 5.66659 8.44381 6.75883 6.35116 8.91358ZM22.7687 8.91358C19.9527 11.8149 20.2376 15.5408 20.2465 15.5833V26.9166C20.2465 27.2923 20.4037 27.6526 20.6834 27.9183C20.9631 28.184 21.3425 28.3333 21.7381 28.3333L30.6874 28.3333C32.3326 28.3333 33.6705 27.0625 33.6705 25.4999V15.5833C33.6705 15.2075 33.5134 14.8472 33.2337 14.5815C32.9539 14.3158 32.5745 14.1666 32.179 14.1666L27.5879 14.1666C27.6195 13.4662 27.8398 12.7852 28.2278 12.1889C28.9855 11.0542 30.413 10.2793 32.4728 9.88825L33.6705 9.66158L33.6705 5.66659H32.179C28.028 5.66659 24.8614 6.75883 22.7687 8.91358Z" fill="#91C914"/>
</svg>
